<svg xmlns="http://www.w3.org/2000/svg" width="1024" height="1024" viewBox="0 0 1024 1024">
<g>
<path d="M 638.09 764.95 C635.88,766.08 633.67,767.00 633.16,767.00 C631.60,767.00 630.21,764.66 629.49,760.82 C629.11,758.79 627.96,756.36 626.92,755.43 C625.89,754.49 624.75,752.10 624.41,750.11 C624.06,748.13 622.70,744.53 621.39,742.12 C620.07,739.72 619.00,737.02 619.00,736.12 C619.00,735.23 620.80,732.03 622.99,729.00 C625.19,725.97 627.52,722.38 628.18,721.00 C628.84,719.62 630.58,717.15 632.06,715.50 C635.58,711.57 636.45,706.77 634.37,702.76 C632.75,699.62 607.00,673.14 607.00,674.61 C607.00,675.04 606.46,674.86 605.80,674.20 C603.95,672.35 600.51,672.78 598.40,675.13 C597.36,676.30 594.68,678.05 592.45,679.01 C590.23,679.97 586.22,682.65 583.54,684.96 C576.01,691.48 573.73,691.91 567.88,687.86 C566.44,686.87 561.58,684.89 557.08,683.47 C546.93,680.26 543.03,677.03 541.96,670.94 C541.53,668.50 540.48,664.70 539.63,662.50 C538.78,660.30 538.07,656.57 538.04,654.20 C538.00,649.63 535.92,644.54 533.79,643.79 C532.78,643.44 492.74,643.55 489.79,643.91 C488.23,644.10 486.72,648.66 485.83,655.86 C485.31,660.02 484.52,663.89 484.06,664.46 C483.60,665.03 482.93,667.08 482.55,669.00 C481.14,676.29 479.90,678.02 473.92,681.04 C470.74,682.65 466.01,684.44 463.42,685.02 C460.83,685.60 457.46,686.96 455.95,688.04 C454.43,689.12 452.33,690.00 451.28,690.00 C449.05,690.00 441.41,686.47 440.52,685.02 C439.80,683.87 426.35,674.87 423.69,673.77 C420.77,672.56 415.50,675.44 409.16,681.69 C405.92,684.88 402.87,688.18 402.39,689.01 C401.90,689.83 399.77,691.81 397.64,693.39 C392.04,697.56 387.78,704.68 388.59,708.49 C389.38,712.21 392.90,717.97 399.75,726.73 C405.67,734.30 406.07,736.47 402.64,742.41 C401.35,744.66 400.00,748.00 399.65,749.83 C399.30,751.66 398.11,754.31 397.01,755.72 C395.90,757.12 395.00,759.06 395.00,760.02 C395.00,760.99 394.18,762.80 393.17,764.04 C390.86,766.89 387.47,766.23 382.64,761.99 C380.77,760.34 378.78,759.00 378.21,759.00 C376.54,759.00 369.68,752.85 363.66,745.95 C360.56,742.40 357.68,739.16 357.26,738.74 C344.58,726.19 341.00,722.13 341.00,720.27 C341.00,719.77 338.75,716.47 336.01,712.93 C333.26,709.39 331.01,705.89 331.01,705.15 C331.00,703.61 324.51,692.54 321.80,689.44 C320.81,688.30 320.00,687.04 320.00,686.64 C320.00,686.24 318.68,683.09 317.06,679.64 C315.45,676.18 313.84,672.04 313.48,670.43 C313.12,668.82 312.19,665.80 311.41,663.73 C310.64,661.66 310.00,658.77 310.00,657.33 C310.00,655.88 308.91,652.40 307.59,649.59 C302.84,639.55 300.89,611.80 303.36,589.50 C304.52,579.07 305.72,573.87 309.40,563.23 C311.93,555.93 314.00,549.32 314.00,548.55 C314.00,547.78 314.70,546.44 315.57,545.58 C316.43,544.72 317.83,541.20 318.69,537.76 C319.55,534.32 323.51,524.75 327.50,516.50 C331.50,508.25 335.31,499.77 335.99,497.66 C336.66,495.55 339.01,491.12 341.20,487.82 C343.39,484.51 346.11,479.61 347.23,476.91 C348.35,474.21 349.62,472.00 350.05,472.00 C350.49,472.00 351.15,470.60 351.52,468.89 C351.90,467.18 353.17,464.28 354.35,462.43 C359.56,454.30 362.06,450.05 365.46,443.51 C367.46,439.67 369.91,435.62 370.90,434.51 C371.89,433.40 374.65,428.90 377.03,424.50 C379.41,420.10 381.67,416.27 382.04,416.00 C382.42,415.73 383.07,414.38 383.48,413.00 C383.89,411.62 385.00,409.60 385.95,408.50 C386.89,407.40 388.94,404.27 390.49,401.55 C392.05,398.83 394.82,394.63 396.66,392.22 C398.50,389.82 400.00,387.43 400.00,386.91 C400.00,386.40 401.60,383.71 403.55,380.94 C405.50,378.16 407.50,374.81 408.01,373.48 C409.30,370.07 413.89,363.03 417.13,359.50 C418.63,357.85 421.28,353.80 423.01,350.50 C424.73,347.20 426.92,343.60 427.86,342.50 C428.81,341.40 430.36,338.79 431.30,336.70 C432.24,334.61 433.45,332.36 433.97,331.70 C434.50,331.04 436.20,328.92 437.75,327.00 C439.30,325.08 442.71,320.25 445.32,316.28 C447.94,312.31 450.54,308.79 451.09,308.44 C451.65,308.10 453.38,305.04 454.94,301.66 C456.49,298.27 458.72,294.64 459.88,293.60 C461.05,292.55 462.00,290.94 462.00,290.03 C462.00,289.11 463.35,286.82 464.99,284.93 C471.88,277.03 473.26,275.26 476.31,270.47 C478.06,267.71 480.69,263.88 482.13,261.97 C483.58,260.06 485.08,257.49 485.45,256.25 C485.83,255.01 486.51,254.00 486.96,254.00 C487.41,254.00 488.50,252.20 489.38,250.00 C490.26,247.80 491.45,246.00 492.02,246.00 C492.58,246.00 493.45,244.99 493.95,243.75 C494.44,242.51 496.72,239.27 499.00,236.54 C501.29,233.82 503.85,230.22 504.70,228.54 C506.35,225.26 510.91,220.00 512.11,220.00 C513.57,220.00 519.00,225.21 519.00,226.62 C519.00,227.41 521.26,230.97 524.03,234.53 C526.79,238.10 529.48,242.13 530.00,243.51 C530.52,244.88 531.34,246.00 531.83,246.00 C532.90,246.00 539.00,255.66 539.00,257.37 C539.00,258.05 541.14,261.28 543.75,264.55 C546.37,267.82 549.02,271.62 549.65,273.00 C550.27,274.38 553.31,278.39 556.39,281.93 C559.48,285.46 562.00,289.10 562.00,290.02 C562.00,290.94 562.95,292.55 564.11,293.60 C565.27,294.64 567.70,298.42 569.50,302.00 C571.31,305.58 575.08,310.97 577.89,313.99 C580.70,317.01 583.00,320.27 583.00,321.24 C583.00,322.21 583.79,323.79 584.75,324.76 C588.09,328.12 594.00,336.78 594.00,338.31 C594.00,339.15 595.09,341.14 596.42,342.72 C597.74,344.30 600.03,348.12 601.50,351.22 C602.96,354.31 604.75,357.07 605.47,357.35 C606.19,357.63 609.15,361.82 612.04,366.68 C614.94,371.53 617.99,376.29 618.81,377.25 C621.31,380.17 625.92,379.34 632.89,374.73 C636.40,372.40 639.78,370.23 640.39,369.91 C646.70,366.52 647.00,366.46 647.00,368.38 C647.00,369.81 642.26,374.21 635.04,379.50 C629.87,383.29 629.06,384.04 626.00,387.94 C624.62,389.69 622.26,392.29 620.75,393.73 C619.24,395.16 618.00,396.92 618.00,397.64 C618.00,398.91 605.35,410.00 603.90,410.00 C603.51,410.00 602.03,411.91 600.62,414.25 C597.42,419.52 594.45,422.84 590.25,425.83 C588.46,427.10 587.00,428.69 587.00,429.36 C587.00,430.03 583.22,434.44 578.60,439.14 C573.98,443.85 569.26,449.54 568.11,451.79 C566.96,454.04 564.78,456.47 563.27,457.20 C561.76,457.92 560.36,459.38 560.15,460.44 C559.95,461.50 558.41,463.75 556.73,465.43 C551.98,470.18 544.00,479.99 544.00,481.09 C544.00,481.63 542.16,483.97 539.91,486.29 C537.65,488.60 534.23,492.98 532.30,496.00 C530.37,499.02 527.57,502.85 526.07,504.50 C524.57,506.15 521.94,509.75 520.23,512.50 C518.51,515.25 515.31,519.26 513.11,521.40 C509.23,525.18 509.03,525.25 506.64,523.69 C505.29,522.80 502.27,519.81 499.93,517.04 C497.60,514.27 495.07,512.00 494.31,512.00 C493.55,512.00 492.61,511.16 492.22,510.13 C491.17,507.40 484.99,500.89 480.72,498.00 C478.68,496.62 477.01,495.05 477.00,494.50 C476.99,493.95 474.67,491.25 471.84,488.50 C469.01,485.75 464.80,481.59 462.48,479.25 C456.55,473.28 453.52,472.89 448.48,477.45 C442.46,482.90 441.89,483.47 436.50,489.54 C433.75,492.64 428.86,497.87 425.63,501.17 C422.39,504.47 420.84,505.82 420.64,507.35 C420.48,508.61 421.25,510.00 422.77,512.74 C423.03,513.21 423.31,513.71 423.61,514.27 C424.45,515.79 426.34,517.81 427.81,518.74 C429.29,519.68 430.90,521.10 431.39,521.88 C432.14,523.10 440.53,531.80 460.25,551.81 C462.59,554.18 465.94,557.93 467.70,560.14 C471.16,564.48 490.82,585.67 503.17,598.37 C512.54,608.01 513.77,608.04 520.61,598.73 C523.13,595.30 525.82,592.14 526.59,591.70 C527.37,591.26 528.00,590.31 528.00,589.59 C528.00,588.87 529.57,586.31 531.49,583.89 C533.41,581.48 534.98,579.03 534.99,578.45 C535.00,577.87 537.14,574.70 539.75,571.40 C549.46,559.15 550.73,557.43 552.28,554.43 C553.15,552.74 554.58,550.76 555.45,550.04 C556.32,549.32 557.71,547.32 558.53,545.61 C559.36,543.90 562.05,540.25 564.52,537.51 C566.98,534.76 569.00,532.13 569.00,531.67 C569.00,531.21 571.64,527.83 574.87,524.16 C578.10,520.50 581.98,515.47 583.50,513.00 C585.02,510.52 588.47,506.24 591.18,503.47 C593.88,500.71 596.64,497.52 597.30,496.39 C600.72,490.55 603.04,487.66 605.16,486.61 C606.45,485.97 607.65,484.42 607.83,483.17 C608.01,481.92 609.17,480.50 610.42,480.03 C612.46,479.26 616.39,474.61 622.65,465.60 C623.83,463.89 628.28,459.12 632.54,455.00 C636.80,450.88 642.99,444.35 646.30,440.50 C654.40,431.07 663.11,423.03 665.25,423.02 C666.21,423.01 667.00,423.21 667.00,423.47 C667.00,424.82 662.07,434.84 661.11,435.43 C658.27,437.19 660.51,447.16 665.35,454.34 C667.53,457.57 671.99,466.17 672.00,467.16 C672.00,467.52 674.03,471.09 676.50,475.11 C678.97,479.12 681.00,482.90 681.00,483.49 C681.00,484.09 684.26,491.09 688.26,499.04 C697.51,517.48 704.00,531.36 704.00,532.70 C704.00,533.27 705.30,536.84 706.88,540.62 C710.23,548.65 714.02,559.92 714.01,561.83 C714.00,562.57 715.29,566.39 716.86,570.33 C719.19,576.18 719.94,580.17 720.89,592.00 C722.75,614.94 720.94,640.39 716.93,647.87 C715.87,649.85 715.00,652.21 715.00,653.11 C715.00,655.55 708.51,676.22 706.18,681.18 C705.07,683.56 703.90,686.17 703.57,687.00 C703.25,687.83 701.20,691.20 699.01,694.50 C696.82,697.80 693.90,702.75 692.53,705.50 C688.59,713.40 677.58,728.37 674.66,729.80 C673.20,730.52 672.00,731.62 672.00,732.25 C672.00,733.37 670.54,735.01 661.53,744.04 C659.04,746.54 657.00,749.14 657.00,749.82 C657.00,750.51 655.42,752.00 653.50,753.13 C651.58,754.27 650.00,755.63 650.00,756.15 C650.00,756.67 648.48,757.74 646.62,758.51 C644.76,759.29 642.98,760.60 642.67,761.42 C642.36,762.24 640.29,763.83 638.09,764.95 ZM 542.50 806.22 C534.03,807.51 493.60,808.03 487.00,806.93 C481.99,806.10 476.91,805.07 462.50,801.95 C459.75,801.36 455.69,800.54 453.48,800.13 C444.52,798.48 442.04,792.71 445.89,782.50 C446.92,779.75 448.10,775.49 448.51,773.04 C448.91,770.59 450.03,767.44 450.99,766.04 C451.95,764.64 454.39,760.91 456.42,757.75 C458.45,754.59 460.71,752.00 461.45,752.00 C462.18,752.00 463.02,751.39 463.31,750.64 C464.09,748.60 478.85,736.92 481.87,735.95 C483.32,735.48 487.65,733.94 491.50,732.53 C505.03,727.57 523.66,728.09 536.50,733.80 C543.21,736.78 556.83,745.68 561.66,750.24 C566.11,754.43 574.75,768.92 575.92,774.15 C576.46,776.55 577.59,780.18 578.44,782.20 C579.29,784.23 580.06,787.96 580.15,790.50 C580.37,796.25 577.98,798.99 571.83,800.02 C567.75,800.70 564.66,801.38 553.25,804.15 C550.64,804.79 545.80,805.72 542.50,806.22 Z" fill="rgb(2,113,195)"/>
<path d="M 395.15 768.39 C388.44,770.26 387.64,770.06 380.92,764.72 C354.15,743.46 334.00,718.81 319.61,689.72 C307.86,665.97 301.86,644.60 299.82,619.21 C298.11,597.99 300.80,580.53 310.04,552.88 C321.05,519.95 347.99,466.45 380.48,413.00 C383.65,407.77 387.85,400.80 389.81,397.50 C403.55,374.33 447.83,306.81 481.62,257.49 C510.39,215.51 511.40,214.09 512.50,214.08 C513.05,214.08 517.78,220.34 523.00,227.99 C528.22,235.65 536.96,248.34 542.42,256.20 C560.60,282.40 598.91,340.01 615.88,366.66 C618.74,371.15 621.72,375.35 622.51,376.01 C623.66,376.97 626.70,375.57 638.22,368.77 C655.00,358.87 668.11,351.78 668.65,352.32 C668.87,352.53 659.66,361.50 648.19,372.25 C626.50,392.58 603.60,416.23 581.62,441.00 C569.62,454.52 538.63,492.54 530.91,503.21 C519.61,518.84 510.45,531.00 509.99,531.00 C509.69,531.00 497.62,518.85 483.15,504.00 C468.68,489.15 456.16,477.00 455.33,477.00 C453.67,477.00 422.80,506.95 423.23,508.14 C423.38,508.55 432.08,517.79 442.57,528.69 C458.26,544.98 495.37,584.90 510.12,601.35 L 513.57 605.20 L 518.43 597.85 C531.14,578.59 562.71,535.28 581.96,510.68 C603.93,482.60 631.43,451.60 658.86,424.01 C685.83,396.87 692.71,390.38 693.58,391.25 C693.88,391.55 686.69,402.69 677.60,416.01 L 661.07 440.23 L 662.67 443.36 C663.56,445.09 668.10,453.48 672.78,462.00 C698.13,508.25 714.40,546.53 721.67,577.00 C725.11,591.42 725.93,614.71 723.58,631.00 C720.54,652.04 715.04,669.73 705.35,689.66 C692.22,716.64 669.25,745.03 645.76,763.30 C637.89,769.41 636.69,770.03 633.69,769.47 C628.85,768.56 628.52,768.18 626.06,760.50 C624.82,756.65 621.83,749.54 619.40,744.70 L 619.33 744.56 C616.91,739.73 615.69,737.29 615.90,734.99 C616.11,732.63 617.81,730.41 621.24,725.88 C623.06,723.47 626.73,718.22 629.37,714.22 C633.87,707.43 634.09,706.79 632.72,704.72 C629.44,699.77 605.39,676.00 603.66,676.00 C602.66,676.00 595.80,680.30 588.44,685.56 L 575.05 695.12 L 567.65 691.08 C563.58,688.86 556.04,685.64 550.88,683.92 C545.72,682.20 541.40,680.69 541.27,680.58 C541.14,680.46 539.69,673.02 538.04,664.04 C536.39,655.06 534.84,647.50 534.59,647.25 C533.69,646.35 501.36,645.88 495.50,646.69 L 489.50 647.51 L 487.86 657.00 C486.96,662.23 485.69,669.73 485.04,673.68 L 483.84 680.85 L 476.67 683.02 C472.73,684.22 465.08,687.41 459.68,690.12 L 449.85 695.05 L 436.51 685.53 C429.17,680.29 422.39,676.00 421.44,676.00 C419.41,676.00 391.00,704.75 391.00,706.80 C391.00,707.57 394.94,713.87 399.75,720.80 C404.56,727.73 408.86,733.98 409.30,734.69 C409.78,735.48 409.06,737.75 407.47,740.45 C404.12,746.17 398.20,760.40 397.41,764.65 C397.07,766.46 396.05,768.14 395.15,768.39 ZM 638.09 764.95 C640.29,763.83 642.36,762.24 642.67,761.42 C642.98,760.60 644.76,759.29 646.62,758.51 C648.48,757.74 650.00,756.67 650.00,756.15 C650.00,755.63 651.58,754.27 653.50,753.13 C655.42,752.00 657.00,750.51 657.00,749.82 C657.00,749.14 659.04,746.54 661.53,744.04 C670.54,735.01 672.00,733.37 672.00,732.25 C672.00,731.62 673.20,730.52 674.66,729.80 C677.58,728.37 688.59,713.40 692.53,705.50 C693.90,702.75 696.82,697.80 699.01,694.50 C701.20,691.20 703.25,687.83 703.57,687.00 C703.90,686.17 705.07,683.56 706.18,681.18 C708.51,676.22 715.00,655.55 715.00,653.11 C715.00,652.21 715.87,649.85 716.93,647.87 C720.94,640.39 722.75,614.94 720.89,592.00 C719.94,580.17 719.19,576.18 716.86,570.33 C715.29,566.39 714.00,562.57 714.01,561.83 C714.02,559.92 710.23,548.65 706.88,540.62 C705.30,536.84 704.00,533.27 704.00,532.70 C704.00,531.36 697.51,517.48 688.26,499.04 C684.26,491.09 681.00,484.09 681.00,483.49 C681.00,482.90 678.97,479.12 676.50,475.11 C674.03,471.09 672.00,467.52 672.00,467.16 C671.99,466.17 667.53,457.57 665.35,454.34 C660.51,447.16 658.27,437.19 661.11,435.43 C662.07,434.84 667.00,424.82 667.00,423.47 C667.00,423.21 666.21,423.01 665.25,423.02 C663.11,423.03 654.40,431.07 646.30,440.50 C642.99,444.35 636.80,450.88 632.54,455.00 C628.28,459.12 623.83,463.89 622.65,465.60 C616.39,474.61 612.46,479.26 610.42,480.03 C609.17,480.50 608.01,481.92 607.83,483.17 C607.65,484.42 606.45,485.97 605.16,486.61 C603.04,487.66 600.72,490.55 597.30,496.39 C596.64,497.52 593.88,500.71 591.18,503.47 C588.47,506.24 585.02,510.52 583.50,513.00 C581.98,515.47 578.10,520.50 574.87,524.16 C571.64,527.83 569.00,531.21 569.00,531.67 C569.00,532.13 566.98,534.76 564.52,537.51 C562.05,540.25 559.36,543.90 558.53,545.61 C557.71,547.32 556.32,549.32 555.45,550.04 C554.58,550.76 553.15,552.74 552.28,554.43 C550.73,557.43 549.46,559.15 539.75,571.40 C537.14,574.70 535.00,577.87 534.99,578.45 C534.98,579.03 533.41,581.48 531.49,583.89 C529.57,586.31 528.00,588.87 528.00,589.59 C528.00,590.31 527.37,591.26 526.59,591.70 C525.82,592.14 523.13,595.30 520.61,598.73 C513.77,608.04 512.54,608.01 503.17,598.37 C490.82,585.67 471.16,564.48 467.70,560.14 C465.94,557.93 462.59,554.18 460.25,551.81 C440.53,531.80 432.14,523.10 431.39,521.88 C430.90,521.10 429.29,519.68 427.81,518.74 C426.34,517.81 424.45,515.79 423.61,514.27 C423.31,513.71 423.03,513.21 422.77,512.74 C421.25,510.00 420.48,508.61 420.64,507.35 C420.84,505.82 422.39,504.47 425.63,501.17 C428.86,497.87 433.75,492.64 436.50,489.54 C441.89,483.47 442.46,482.90 448.48,477.45 C453.52,472.89 456.55,473.28 462.48,479.25 C464.80,481.59 469.01,485.75 471.84,488.50 C474.67,491.25 476.99,493.95 477.00,494.50 C477.01,495.05 478.68,496.62 480.72,498.00 C484.99,500.89 491.17,507.40 492.22,510.13 C492.61,511.16 493.55,512.00 494.31,512.00 C495.07,512.00 497.60,514.27 499.93,517.04 C502.27,519.81 505.29,522.80 506.64,523.69 C509.03,525.25 509.23,525.18 513.11,521.40 C515.31,519.26 518.51,515.25 520.23,512.50 C521.94,509.75 524.57,506.15 526.07,504.50 C527.57,502.85 530.37,499.02 532.30,496.00 C534.23,492.98 537.65,488.60 539.91,486.29 C542.16,483.97 544.00,481.63 544.00,481.09 C544.00,479.99 551.98,470.18 556.73,465.43 C558.41,463.75 559.95,461.50 560.15,460.44 C560.36,459.38 561.76,457.92 563.27,457.20 C564.78,456.47 566.96,454.04 568.11,451.79 C569.26,449.54 573.98,443.85 578.60,439.14 C583.22,434.44 587.00,430.03 587.00,429.36 C587.00,428.69 588.46,427.10 590.25,425.83 C594.45,422.84 597.42,419.52 600.62,414.25 C602.03,411.91 603.51,410.00 603.90,410.00 C605.35,410.00 618.00,398.91 618.00,397.64 C618.00,396.92 619.24,395.16 620.75,393.73 C622.26,392.29 624.62,389.69 626.00,387.94 C629.06,384.04 629.87,383.29 635.04,379.50 C642.26,374.21 647.00,369.81 647.00,368.38 C647.00,366.46 646.70,366.52 640.39,369.91 C639.78,370.23 636.40,372.40 632.89,374.73 C625.92,379.34 621.31,380.17 618.81,377.25 C617.99,376.29 614.94,371.53 612.04,366.68 C609.15,361.82 606.19,357.63 605.47,357.35 C604.75,357.07 602.96,354.31 601.50,351.22 C600.03,348.12 597.74,344.30 596.42,342.72 C595.09,341.14 594.00,339.15 594.00,338.31 C594.00,336.78 588.09,328.12 584.75,324.76 C583.79,323.79 583.00,322.21 583.00,321.24 C583.00,320.27 580.70,317.01 577.89,313.99 C575.08,310.97 571.31,305.58 569.50,302.00 C567.70,298.42 565.27,294.64 564.11,293.60 C562.95,292.55 562.00,290.94 562.00,290.02 C562.00,289.10 559.48,285.46 556.39,281.93 C553.31,278.39 550.27,274.38 549.65,273.00 C549.02,271.62 546.37,267.82 543.75,264.55 C541.14,261.28 539.00,258.05 539.00,257.37 C539.00,255.66 532.90,246.00 531.83,246.00 C531.34,246.00 530.52,244.88 530.00,243.51 C529.48,242.13 526.79,238.10 524.03,234.53 C521.26,230.97 519.00,227.41 519.00,226.62 C519.00,225.21 513.57,220.00 512.11,220.00 C510.91,220.00 506.35,225.26 504.70,228.54 C503.85,230.22 501.29,233.82 499.00,236.54 C496.72,239.27 494.44,242.51 493.95,243.75 C493.45,244.99 492.58,246.00 492.02,246.00 C491.45,246.00 490.26,247.80 489.38,250.00 C488.50,252.20 487.41,254.00 486.96,254.00 C486.51,254.00 485.83,255.01 485.45,256.25 C485.08,257.49 483.58,260.06 482.13,261.97 C480.69,263.88 478.06,267.71 476.31,270.47 C473.26,275.26 471.88,277.03 464.99,284.93 C463.35,286.82 462.00,289.11 462.00,290.03 C462.00,290.94 461.05,292.55 459.88,293.60 C458.72,294.64 456.49,298.27 454.94,301.66 C453.38,305.04 451.65,308.10 451.09,308.44 C450.54,308.79 447.94,312.31 445.32,316.28 C442.71,320.25 439.30,325.08 437.75,327.00 C436.20,328.92 434.50,331.04 433.97,331.70 C433.45,332.36 432.24,334.61 431.30,336.70 C430.36,338.79 428.81,341.40 427.86,342.50 C426.92,343.60 424.73,347.20 423.01,350.50 C421.28,353.80 418.63,357.85 417.13,359.50 C413.89,363.03 409.30,370.07 408.01,373.48 C407.50,374.81 405.50,378.16 403.55,380.94 C401.60,383.71 400.00,386.40 400.00,386.91 C400.00,387.43 398.50,389.82 396.66,392.22 C394.82,394.63 392.05,398.83 390.49,401.55 C388.94,404.27 386.89,407.40 385.95,408.50 C385.00,409.60 383.89,411.62 383.48,413.00 C383.07,414.38 382.42,415.73 382.04,416.00 C381.67,416.27 379.41,420.10 377.03,424.50 C374.65,428.90 371.89,433.40 370.90,434.51 C369.91,435.62 367.46,439.67 365.46,443.51 C362.06,450.05 359.56,454.30 354.35,462.43 C353.17,464.28 351.90,467.18 351.52,468.89 C351.15,470.60 350.49,472.00 350.05,472.00 C349.62,472.00 348.35,474.21 347.23,476.91 C346.11,479.61 343.39,484.51 341.20,487.82 C339.01,491.12 336.66,495.55 335.99,497.66 C335.31,499.77 331.50,508.25 327.50,516.50 C323.51,524.75 319.55,534.32 318.69,537.76 C317.83,541.20 316.43,544.72 315.57,545.58 C314.70,546.44 314.00,547.78 314.00,548.55 C314.00,549.32 311.93,555.93 309.40,563.23 C305.72,573.87 304.52,579.07 303.36,589.50 C300.89,611.80 302.84,639.55 307.59,649.59 C308.91,652.40 310.00,655.88 310.00,657.33 C310.00,658.77 310.64,661.66 311.41,663.73 C312.19,665.80 313.12,668.82 313.48,670.43 C313.84,672.04 315.45,676.18 317.06,679.64 C318.68,683.09 320.00,686.24 320.00,686.64 C320.00,687.04 320.81,688.30 321.80,689.44 C324.51,692.54 331.00,703.61 331.01,705.15 C331.01,705.89 333.26,709.39 336.01,712.93 C338.75,716.47 341.00,719.77 341.00,720.27 C341.00,722.13 344.58,726.19 357.26,738.74 C357.68,739.16 360.56,742.40 363.66,745.95 C369.68,752.85 376.54,759.00 378.21,759.00 C378.78,759.00 380.77,760.34 382.64,761.99 C387.47,766.23 390.86,766.89 393.17,764.04 C394.18,762.80 395.00,760.99 395.00,760.02 C395.00,759.06 395.90,757.12 397.01,755.72 C398.11,754.31 399.30,751.66 399.65,749.83 C400.00,748.00 401.35,744.66 402.64,742.41 C406.07,736.47 405.67,734.30 399.75,726.73 C392.90,717.97 389.38,712.21 388.59,708.49 C387.78,704.68 392.04,697.56 397.64,693.39 C399.77,691.81 401.90,689.83 402.39,689.01 C402.87,688.18 405.92,684.88 409.16,681.69 C415.50,675.44 420.77,672.56 423.69,673.77 C426.35,674.87 439.80,683.87 440.52,685.02 C441.41,686.47 449.05,690.00 451.28,690.00 C452.33,690.00 454.43,689.12 455.95,688.04 C457.46,686.96 460.83,685.60 463.42,685.02 C466.01,684.44 470.74,682.65 473.92,681.04 C479.90,678.02 481.14,676.29 482.55,669.00 C482.93,667.08 483.60,665.03 484.06,664.46 C484.52,663.89 485.31,660.02 485.83,655.86 C486.72,648.66 488.23,644.10 489.79,643.91 C492.74,643.55 532.78,643.44 533.79,643.79 C535.92,644.54 538.00,649.63 538.04,654.20 C538.07,656.57 538.78,660.30 539.63,662.50 C540.48,664.70 541.53,668.50 541.96,670.94 C543.03,677.03 546.93,680.26 557.08,683.47 C561.58,684.89 566.44,686.87 567.88,687.86 C573.73,691.91 576.01,691.48 583.54,684.96 C586.22,682.65 590.23,679.97 592.45,679.01 C594.68,678.05 597.36,676.30 598.40,675.13 C600.51,672.78 603.95,672.35 605.80,674.20 C606.46,674.86 607.00,675.04 607.00,674.61 C607.00,673.14 632.75,699.62 634.37,702.76 C636.45,706.77 635.58,711.57 632.06,715.50 C630.58,717.15 628.84,719.62 628.18,721.00 C627.52,722.38 625.19,725.97 622.99,729.00 C620.80,732.03 619.00,735.23 619.00,736.12 C619.00,737.02 620.07,739.72 621.39,742.12 C622.70,744.53 624.06,748.13 624.41,750.11 C624.75,752.10 625.89,754.49 626.92,755.43 C627.96,756.36 629.11,758.79 629.49,760.82 C630.21,764.66 631.60,767.00 633.16,767.00 C633.67,767.00 635.88,766.08 638.09,764.95 ZM 542.00 809.03 C527.11,811.35 499.71,811.54 485.20,809.43 C474.65,807.89 458.85,804.17 448.50,800.79 L 441.50 798.50 L 441.18 794.09 C440.30,781.76 448.58,762.02 459.65,750.06 C474.26,734.28 491.90,726.55 513.00,726.67 C532.43,726.78 548.25,733.23 561.60,746.47 C574.37,759.14 580.70,771.70 583.22,789.39 C584.26,796.63 584.20,797.38 582.52,798.61 C578.94,801.23 558.73,806.42 542.00,809.03 ZM 542.50 806.22 C545.80,805.72 550.64,804.79 553.25,804.15 C564.66,801.38 567.75,800.70 571.83,800.02 C577.98,798.99 580.37,796.25 580.15,790.50 C580.06,787.96 579.29,784.23 578.44,782.20 C577.59,780.18 576.46,776.55 575.92,774.15 C574.75,768.92 566.11,754.43 561.66,750.24 C556.83,745.68 543.21,736.78 536.50,733.80 C523.66,728.09 505.03,727.57 491.50,732.53 C487.65,733.94 483.32,735.48 481.87,735.95 C478.85,736.92 464.09,748.60 463.31,750.64 C463.02,751.39 462.18,752.00 461.45,752.00 C460.71,752.00 458.45,754.59 456.42,757.75 C454.39,760.91 451.95,764.64 450.99,766.04 C450.03,767.44 448.91,770.59 448.51,773.04 C448.10,775.49 446.92,779.75 445.89,782.50 C442.04,792.71 444.52,798.48 453.48,800.13 C455.69,800.54 459.75,801.36 462.50,801.95 C476.91,805.07 481.99,806.10 487.00,806.93 C493.60,808.03 534.03,807.51 542.50,806.22 Z" fill="rgb(24,109,166)"/>
<path d="M 549.00 810.54 C539.76,812.53 533.87,813.10 519.00,813.42 C500.11,813.82 498.75,813.76 484.00,811.93 C475.98,810.93 441.36,802.69 440.16,801.49 C439.85,801.18 439.32,798.40 438.98,795.30 C438.15,787.76 440.41,775.07 444.12,766.50 C445.34,763.69 455.26,749.26 459.13,744.68 C460.91,742.58 464.07,739.99 466.15,738.92 C468.24,737.86 471.42,735.73 473.22,734.19 C479.56,728.79 503.95,722.43 514.91,723.33 C523.59,724.04 533.72,726.27 537.70,728.34 C539.46,729.25 541.84,730.00 542.99,730.00 C548.05,730.00 564.50,742.19 567.62,748.25 C568.54,750.04 570.11,752.40 571.11,753.50 C575.09,757.87 581.00,766.53 581.00,767.97 C580.99,768.81 581.64,771.53 582.43,774.00 C587.74,790.68 586.17,802.86 578.50,804.38 C571.16,805.85 558.84,808.42 549.00,810.54 ZM 542.00 809.03 C558.73,806.42 578.94,801.23 582.52,798.61 C584.20,797.38 584.26,796.63 583.22,789.39 C580.70,771.70 574.37,759.14 561.60,746.47 C548.25,733.23 532.43,726.78 513.00,726.67 C491.90,726.55 474.26,734.28 459.65,750.06 C448.58,762.02 440.30,781.76 441.18,794.09 L 441.50 798.50 L 448.50 800.79 C458.85,804.17 474.65,807.89 485.20,809.43 C499.71,811.54 527.11,811.35 542.00,809.03 ZM 395.15 768.39 C396.05,768.14 397.07,766.46 397.41,764.65 C398.20,760.40 404.12,746.17 407.47,740.45 C409.06,737.75 409.78,735.48 409.30,734.69 C408.86,733.98 404.56,727.73 399.75,720.80 C394.94,713.87 391.00,707.57 391.00,706.80 C391.00,704.75 419.41,676.00 421.44,676.00 C422.39,676.00 429.17,680.29 436.51,685.53 L 449.85 695.05 L 459.68 690.12 C465.08,687.41 472.73,684.22 476.67,683.02 L 483.84 680.85 L 485.04 673.68 C485.69,669.73 486.96,662.23 487.86,657.00 L 489.50 647.51 L 495.50 646.69 C501.36,645.88 533.69,646.35 534.59,647.25 C534.84,647.50 536.39,655.06 538.04,664.04 C539.69,673.02 541.14,680.46 541.27,680.58 C541.40,680.69 545.72,682.20 550.88,683.92 C556.04,685.64 563.58,688.86 567.65,691.08 L 575.05 695.12 L 588.44 685.56 C595.80,680.30 602.66,676.00 603.66,676.00 C605.39,676.00 629.44,699.77 632.72,704.72 C634.09,706.79 633.87,707.43 629.37,714.22 C626.73,718.22 623.06,723.47 621.24,725.88 C617.81,730.41 616.11,732.63 615.90,734.99 C615.69,737.29 616.91,739.73 619.33,744.56 L 619.40 744.70 C621.83,749.54 624.82,756.65 626.06,760.50 C628.52,768.18 628.85,768.56 633.69,769.47 C636.69,770.03 637.89,769.41 645.76,763.30 C669.25,745.03 692.22,716.64 705.35,689.66 C715.04,669.73 720.54,652.04 723.58,631.00 C725.93,614.71 725.11,591.42 721.67,577.00 C714.40,546.53 698.13,508.25 672.78,462.00 C668.10,453.48 663.56,445.09 662.67,443.36 L 661.07 440.23 L 677.60 416.01 C686.69,402.69 693.88,391.55 693.58,391.25 C692.71,390.38 685.83,396.87 658.86,424.01 C631.43,451.60 603.93,482.60 581.96,510.68 C562.71,535.28 531.14,578.59 518.43,597.85 L 513.57 605.20 L 510.12 601.35 C495.37,584.90 458.26,544.98 442.57,528.69 C432.08,517.79 423.38,508.55 423.23,508.14 C422.80,506.95 453.67,477.00 455.33,477.00 C456.16,477.00 468.68,489.15 483.15,504.00 C497.62,518.85 509.69,531.00 509.99,531.00 C510.45,531.00 519.61,518.84 530.91,503.21 C538.63,492.54 569.62,454.52 581.62,441.00 C603.60,416.23 626.50,392.58 648.19,372.25 C658.70,362.40 667.30,354.05 668.51,352.56 C670.46,354.25 667.51,358.23 659.00,365.73 C646.19,377.01 640.21,382.85 638.31,385.93 C637.43,387.34 634.30,390.52 631.34,393.00 C623.59,399.49 614.91,407.96 611.85,412.00 C608.14,416.91 595.16,430.00 594.00,430.00 C593.47,430.00 592.18,431.69 591.12,433.75 C590.06,435.81 587.81,438.52 586.11,439.77 C584.42,441.02 582.75,443.14 582.41,444.48 C582.08,445.83 580.98,447.19 579.97,447.51 C578.97,447.83 577.23,449.64 576.11,451.54 C574.98,453.44 573.44,455.00 572.66,455.00 C571.89,455.00 569.55,457.73 567.45,461.07 C565.36,464.41 561.98,468.58 559.94,470.32 C557.90,472.07 554.79,475.98 553.03,479.00 C551.27,482.02 548.26,486.12 546.35,488.10 C544.44,490.09 541.44,493.77 539.69,496.29 C537.94,498.81 534.70,503.08 532.50,505.78 C530.30,508.48 525.00,515.48 520.72,521.34 C513.46,531.29 512.72,532.00 509.53,532.00 C505.69,532.00 502.56,529.12 472.25,497.75 C463.35,488.54 455.49,481.01 454.79,481.02 C454.08,481.04 450.49,484.07 446.80,487.77 C435.36,499.27 431.58,503.02 429.25,505.21 C428.01,506.37 427.00,507.59 427.00,507.93 C427.00,508.27 431.84,513.57 437.75,519.72 C448.65,531.05 467.95,551.30 480.25,564.32 C483.96,568.25 487.05,571.92 487.11,572.48 C487.17,573.04 490.71,576.65 494.98,580.50 C499.25,584.35 503.43,589.08 504.27,591.00 C505.71,594.29 510.77,599.00 512.87,599.00 C514.39,599.00 519.12,592.88 521.02,588.45 C521.98,586.22 524.99,581.71 527.71,578.45 C530.42,575.18 534.62,569.58 537.04,566.00 C539.45,562.42 541.68,559.28 542.00,559.00 C542.72,558.37 549.86,547.87 552.43,543.66 C554.08,540.95 562.99,529.33 572.87,517.00 C574.41,515.08 576.26,512.38 576.98,511.00 C577.70,509.62 579.97,506.70 582.04,504.50 C591.00,494.96 592.00,493.80 592.00,492.97 C592.00,492.49 593.58,490.90 595.50,489.43 C597.42,487.96 599.00,486.34 599.00,485.81 C599.00,484.32 603.87,478.07 610.55,471.00 C613.93,467.42 617.45,463.04 618.37,461.25 C619.30,459.46 620.51,458.00 621.08,458.00 C622.38,458.00 628.24,451.76 632.12,446.24 C636.17,440.47 639.87,436.80 643.45,435.00 C645.09,434.17 647.47,431.96 648.74,430.07 C651.89,425.39 668.53,408.00 669.86,408.00 C671.54,408.00 680.64,398.76 681.43,396.25 C681.82,395.01 682.60,394.00 683.17,394.00 C683.73,394.00 685.44,392.67 686.95,391.05 C688.46,389.43 690.78,387.96 692.10,387.78 C693.42,387.60 695.03,387.12 695.68,386.71 C697.34,385.67 698.25,387.57 697.13,389.71 C696.61,390.69 695.68,393.40 695.06,395.72 C694.24,398.81 692.60,401.09 688.97,404.22 C686.24,406.57 684.00,409.06 684.00,409.75 C684.00,410.44 683.10,411.90 681.99,413.01 C680.89,414.11 679.39,416.70 678.67,418.76 C677.95,420.82 674.64,426.10 671.32,430.50 C668.00,434.90 665.06,439.17 664.79,440.00 C664.09,442.06 669.44,452.47 674.02,457.97 C676.09,460.46 678.12,464.08 678.52,466.00 C678.92,467.92 680.03,470.62 680.99,472.00 C681.94,473.38 683.26,476.15 683.91,478.17 C684.57,480.19 685.73,482.36 686.51,483.00 C688.80,484.91 693.03,492.73 694.57,497.92 C695.36,500.58 696.68,503.32 697.50,504.00 C698.32,504.68 699.91,508.20 701.03,511.83 C702.15,515.45 703.78,519.21 704.67,520.19 C705.55,521.16 707.61,525.68 709.24,530.23 C710.87,534.78 713.98,543.45 716.16,549.50 C719.85,559.77 721.34,564.30 723.88,573.00 C729.46,592.10 728.80,630.31 722.54,651.00 C721.29,655.12 719.49,661.20 718.54,664.50 C717.58,667.80 715.48,672.97 713.87,675.99 C712.25,679.02 710.24,684.13 709.41,687.36 C708.57,690.59 707.08,694.42 706.10,695.87 C705.12,697.32 703.19,700.30 701.83,702.50 C695.39,712.85 693.95,714.95 690.10,719.56 C687.83,722.28 685.13,725.40 684.10,726.50 C683.07,727.60 680.80,731.20 679.05,734.50 C676.69,738.94 674.19,741.77 669.43,745.38 C665.89,748.06 663.00,750.60 663.00,751.01 C663.00,752.03 656.83,758.00 655.77,758.00 C655.31,758.00 652.99,759.99 650.63,762.42 C648.27,764.85 643.57,768.29 640.19,770.06 C634.29,773.15 633.88,773.23 630.30,771.86 C626.91,770.57 626.36,769.81 624.26,763.53 C622.99,759.72 621.32,755.91 620.55,755.05 C619.79,754.20 618.82,752.15 618.42,750.50 C618.01,748.85 616.56,745.82 615.21,743.76 C613.18,740.68 612.86,739.28 613.40,735.91 C614.22,730.75 617.03,725.22 620.45,722.03 C623.23,719.43 629.00,708.96 629.00,706.50 C629.00,705.71 623.43,699.42 616.63,692.53 C602.86,678.59 601.37,677.90 596.44,683.09 C594.82,684.79 591.89,687.01 589.93,688.02 C587.97,689.03 585.75,690.59 585.01,691.49 C582.93,694.00 578.06,696.20 574.61,696.20 C571.71,696.20 567.01,694.26 556.01,688.53 C553.54,687.25 549.43,685.92 546.87,685.58 C544.31,685.24 541.04,684.04 539.61,682.91 C537.33,681.12 537.00,680.12 537.00,675.04 C537.00,667.04 534.21,652.75 532.38,651.34 C529.61,649.21 514.94,647.69 504.63,648.46 C496.60,649.07 494.42,649.59 492.26,651.45 C489.53,653.80 489.45,654.16 487.47,674.00 C486.68,681.82 484.34,685.00 479.35,685.00 C475.93,685.00 465.04,689.31 463.93,691.11 C463.58,691.68 460.33,693.22 456.70,694.54 C450.93,696.63 449.66,696.78 446.62,695.72 C444.71,695.05 442.09,693.58 440.80,692.45 C439.51,691.33 435.96,688.98 432.91,687.23 C429.86,685.49 426.54,683.15 425.53,682.03 C424.52,680.91 422.93,680.00 422.01,680.00 C419.93,680.00 395.00,704.54 395.00,706.58 C395.00,708.75 400.74,719.75 402.36,720.69 C404.83,722.12 409.83,731.03 410.54,735.26 C411.10,738.55 410.74,740.36 408.73,744.43 C403.72,754.55 401.14,760.59 400.04,764.75 C399.41,767.15 397.96,769.63 396.71,770.43 C393.56,772.48 389.87,773.07 387.18,771.96 C382.26,769.95 373.19,763.22 366.00,756.26 C361.88,752.27 358.17,749.00 357.77,749.00 C356.51,749.00 346.00,737.84 346.00,736.51 C346.00,735.82 345.30,734.66 344.44,733.95 C343.59,733.24 342.28,731.27 341.54,729.58 C340.80,727.89 337.72,723.71 334.69,720.29 C327.01,711.63 314.00,689.77 314.00,685.51 C313.99,684.40 313.00,681.92 311.79,680.00 C308.32,674.50 306.40,669.90 305.10,663.98 C304.43,660.96 302.82,654.90 301.51,650.50 C298.69,641.01 297.18,629.91 296.41,612.94 C295.72,597.64 298.40,577.20 302.51,566.50 C303.98,562.65 306.08,556.12 307.16,552.00 C308.25,547.88 310.68,541.07 312.57,536.87 C314.46,532.68 316.00,528.83 316.00,528.33 C316.00,527.82 317.58,524.33 319.50,520.57 C321.42,516.81 323.00,513.04 323.00,512.20 C323.00,511.35 324.28,508.38 325.85,505.58 C327.42,502.79 329.28,498.70 329.99,496.50 C330.69,494.30 332.78,490.41 334.63,487.87 C336.49,485.32 338.00,482.91 338.00,482.52 C338.00,482.13 339.73,478.14 341.85,473.65 C343.97,469.17 346.22,464.38 346.85,463.00 C347.47,461.62 349.78,458.02 351.96,455.00 C354.15,451.98 357.78,445.79 360.04,441.25 C362.29,436.71 364.50,433.00 364.95,433.00 C365.39,433.00 366.34,431.54 367.06,429.75 C367.78,427.96 370.53,423.18 373.18,419.11 C375.83,415.05 378.00,411.20 378.00,410.55 C378.00,409.90 378.93,408.38 380.07,407.16 C381.20,405.94 383.83,401.69 385.92,397.72 C394.14,382.05 396.64,377.91 400.22,374.11 C402.26,371.94 406.94,364.84 410.61,358.33 C414.28,351.82 417.90,345.60 418.66,344.50 C419.41,343.40 421.87,339.71 424.13,336.31 C426.40,332.91 428.89,329.87 429.67,329.57 C430.46,329.27 432.20,326.66 433.54,323.76 C434.88,320.87 436.82,317.38 437.85,316.00 C438.88,314.62 441.66,310.35 444.03,306.50 C446.40,302.65 449.73,298.08 451.42,296.35 C456.07,291.58 456.98,290.31 459.06,285.60 C460.11,283.21 461.69,280.67 462.56,279.95 C463.43,279.23 465.02,277.03 466.08,275.07 C468.22,271.13 469.12,269.65 473.43,263.02 C475.05,260.53 476.64,258.27 476.97,258.00 C480.52,255.04 486.73,245.79 490.77,237.41 C491.86,235.16 494.28,231.79 496.16,229.91 C498.04,228.03 501.34,223.64 503.49,220.14 C509.80,209.92 514.48,209.51 519.92,218.71 C521.81,221.89 525.18,226.59 527.42,229.15 C529.67,231.71 533.08,236.88 535.00,240.65 C536.92,244.42 539.51,248.32 540.75,249.32 C541.99,250.32 543.00,251.79 543.00,252.57 C543.00,253.35 544.51,255.68 546.36,257.75 C550.05,261.86 560.00,276.85 560.00,278.29 C560.00,279.30 562.84,283.18 568.07,289.32 C570.03,291.62 573.80,296.88 576.45,301.00 C579.09,305.12 582.49,310.30 583.99,312.50 C585.49,314.70 587.48,317.98 588.41,319.80 C590.14,323.18 592.24,326.00 595.15,328.87 C597.00,330.70 602.72,339.89 608.00,349.51 C609.92,353.02 612.42,356.94 613.54,358.22 C614.67,359.50 617.05,362.66 618.83,365.26 C622.85,371.10 624.87,372.30 627.46,370.41 C628.52,369.63 629.99,369.00 630.74,369.00 C632.15,369.00 646.63,360.40 651.00,356.97 C654.49,354.23 663.60,351.20 666.60,351.77 C667.29,351.91 667.83,352.10 668.23,352.35 C665.81,353.03 653.54,359.73 638.22,368.77 C626.70,375.57 623.66,376.97 622.51,376.01 C621.72,375.35 618.74,371.15 615.88,366.66 C598.91,340.01 560.60,282.40 542.42,256.20 C536.96,248.34 528.22,235.65 523.00,227.99 C517.78,220.34 513.05,214.08 512.50,214.08 C511.40,214.09 510.39,215.51 481.62,257.49 C447.83,306.81 403.55,374.33 389.81,397.50 C387.85,400.80 383.65,407.77 380.48,413.00 C347.99,466.45 321.05,519.95 310.04,552.88 C300.80,580.53 298.11,597.99 299.82,619.21 C301.86,644.60 307.86,665.97 319.61,689.72 C334.00,718.81 354.15,743.46 380.92,764.72 C387.64,770.06 388.44,770.26 395.15,768.39 Z" fill="rgb(229,252,253)"/>
<path d="M 0.00 512.00 L 0.00 0.00 L 512.00 0.00 L 1024.00 0.00 L 1024.00 512.00 L 1024.00 1024.00 L 512.00 1024.00 L 0.00 1024.00 L 0.00 512.00 ZM 549.00 810.54 C558.84,808.42 571.16,805.85 578.50,804.38 C586.17,802.86 587.74,790.68 582.43,774.00 C581.64,771.53 580.99,768.81 581.00,767.97 C581.00,766.53 575.09,757.87 571.11,753.50 C570.11,752.40 568.54,750.04 567.62,748.25 C564.50,742.19 548.05,730.00 542.99,730.00 C541.84,730.00 539.46,729.25 537.70,728.34 C533.72,726.27 523.59,724.04 514.91,723.33 C503.95,722.43 479.56,728.79 473.22,734.19 C471.42,735.73 468.24,737.86 466.15,738.92 C464.07,739.99 460.91,742.58 459.13,744.68 C455.26,749.26 445.34,763.69 444.12,766.50 C440.41,775.07 438.15,787.76 438.98,795.30 C439.32,798.40 439.85,801.18 440.16,801.49 C441.36,802.69 475.98,810.93 484.00,811.93 C498.75,813.76 500.11,813.82 519.00,813.42 C533.87,813.10 539.76,812.53 549.00,810.54 ZM 396.71 770.43 C397.96,769.63 399.41,767.15 400.04,764.75 C401.14,760.59 403.72,754.55 408.73,744.43 C410.74,740.36 411.10,738.55 410.54,735.26 C409.83,731.03 404.83,722.12 402.36,720.69 C400.74,719.75 395.00,708.75 395.00,706.58 C395.00,704.54 419.93,680.00 422.01,680.00 C422.93,680.00 424.52,680.91 425.53,682.03 C426.54,683.15 429.86,685.49 432.91,687.23 C435.96,688.98 439.51,691.33 440.80,692.45 C442.09,693.58 444.71,695.05 446.62,695.72 C449.66,696.78 450.93,696.63 456.70,694.54 C460.33,693.22 463.58,691.68 463.93,691.11 C465.04,689.31 475.93,685.00 479.35,685.00 C484.34,685.00 486.68,681.82 487.47,674.00 C489.45,654.16 489.53,653.80 492.26,651.45 C494.42,649.59 496.60,649.07 504.63,648.46 C514.94,647.69 529.61,649.21 532.38,651.34 C534.21,652.75 537.00,667.04 537.00,675.04 C537.00,680.12 537.33,681.12 539.61,682.91 C541.04,684.04 544.31,685.24 546.87,685.58 C549.43,685.92 553.54,687.25 556.01,688.53 C567.01,694.26 571.71,696.20 574.61,696.20 C578.06,696.20 582.93,694.00 585.01,691.49 C585.75,690.59 587.97,689.03 589.93,688.02 C591.89,687.01 594.82,684.79 596.44,683.09 C601.37,677.90 602.86,678.59 616.63,692.53 C623.43,699.42 629.00,705.71 629.00,706.50 C629.00,708.96 623.23,719.43 620.45,722.03 C617.03,725.22 614.22,730.75 613.40,735.91 C612.86,739.28 613.18,740.68 615.21,743.76 C616.56,745.82 618.01,748.85 618.42,750.50 C618.82,752.15 619.79,754.20 620.55,755.05 C621.32,755.91 622.99,759.72 624.26,763.53 C626.36,769.81 626.91,770.57 630.30,771.86 C633.88,773.23 634.29,773.15 640.19,770.06 C643.57,768.29 648.27,764.85 650.63,762.42 C652.99,759.99 655.31,758.00 655.77,758.00 C656.83,758.00 663.00,752.03 663.00,751.01 C663.00,750.60 665.89,748.06 669.43,745.38 C674.19,741.77 676.69,738.94 679.05,734.50 C680.80,731.20 683.07,727.60 684.10,726.50 C685.13,725.40 687.83,722.28 690.10,719.56 C693.95,714.95 695.39,712.85 701.83,702.50 C703.19,700.30 705.12,697.32 706.10,695.87 C707.08,694.42 708.57,690.59 709.41,687.36 C710.24,684.13 712.25,679.02 713.87,675.99 C715.48,672.97 717.58,667.80 718.54,664.50 C719.49,661.20 721.29,655.12 722.54,651.00 C728.80,630.31 729.46,592.10 723.88,573.00 C721.34,564.30 719.85,559.77 716.16,549.50 C713.98,543.45 710.87,534.78 709.24,530.23 C707.61,525.68 705.55,521.16 704.67,520.19 C703.78,519.21 702.15,515.45 701.03,511.83 C699.91,508.20 698.32,504.68 697.50,504.00 C696.68,503.32 695.36,500.58 694.57,497.92 C693.03,492.73 688.80,484.91 686.51,483.00 C685.73,482.36 684.57,480.19 683.91,478.17 C683.26,476.15 681.94,473.38 680.99,472.00 C680.03,470.62 678.92,467.92 678.52,466.00 C678.12,464.08 676.09,460.46 674.02,457.97 C669.44,452.47 664.09,442.06 664.79,440.00 C665.06,439.17 668.00,434.90 671.32,430.50 C674.64,426.10 677.95,420.82 678.67,418.76 C679.39,416.70 680.89,414.11 681.99,413.01 C683.10,411.90 684.00,410.44 684.00,409.75 C684.00,409.06 686.24,406.57 688.97,404.22 C692.60,401.09 694.24,398.81 695.06,395.72 C695.68,393.40 696.61,390.69 697.13,389.71 C698.25,387.57 697.34,385.67 695.68,386.71 C695.03,387.12 693.42,387.60 692.10,387.78 C690.78,387.96 688.46,389.43 686.95,391.05 C685.44,392.67 683.73,394.00 683.17,394.00 C682.60,394.00 681.82,395.01 681.43,396.25 C680.64,398.76 671.54,408.00 669.86,408.00 C668.53,408.00 651.89,425.39 648.74,430.07 C647.47,431.96 645.09,434.17 643.45,435.00 C639.87,436.80 636.17,440.47 632.12,446.24 C628.24,451.76 622.38,458.00 621.08,458.00 C620.51,458.00 619.30,459.46 618.37,461.25 C617.45,463.04 613.93,467.42 610.55,471.00 C603.87,478.07 599.00,484.32 599.00,485.81 C599.00,486.34 597.42,487.96 595.50,489.43 C593.58,490.90 592.00,492.49 592.00,492.97 C592.00,493.80 591.00,494.96 582.04,504.50 C579.97,506.70 577.70,509.62 576.98,511.00 C576.26,512.38 574.41,515.08 572.87,517.00 C562.99,529.33 554.08,540.95 552.43,543.66 C549.86,547.87 542.72,558.37 542.00,559.00 C541.68,559.28 539.45,562.42 537.04,566.00 C534.62,569.58 530.42,575.18 527.71,578.45 C524.99,581.71 521.98,586.22 521.02,588.45 C519.12,592.88 514.39,599.00 512.87,599.00 C510.77,599.00 505.71,594.29 504.27,591.00 C503.43,589.08 499.25,584.35 494.98,580.50 C490.71,576.65 487.17,573.04 487.11,572.48 C487.05,571.92 483.96,568.25 480.25,564.32 C467.95,551.30 448.65,531.05 437.75,519.72 C431.84,513.57 427.00,508.27 427.00,507.93 C427.00,507.59 428.01,506.37 429.25,505.21 C431.58,503.02 435.36,499.27 446.80,487.77 C450.49,484.07 454.08,481.04 454.79,481.02 C455.49,481.01 463.35,488.54 472.25,497.75 C502.56,529.12 505.69,532.00 509.53,532.00 C512.72,532.00 513.46,531.29 520.72,521.34 C525.00,515.48 530.30,508.48 532.50,505.78 C534.70,503.08 537.94,498.81 539.69,496.29 C541.44,493.77 544.44,490.09 546.35,488.10 C548.26,486.12 551.27,482.02 553.03,479.00 C554.79,475.98 557.90,472.07 559.94,470.32 C561.98,468.58 565.36,464.41 567.45,461.07 C569.55,457.73 571.89,455.00 572.66,455.00 C573.44,455.00 574.98,453.44 576.11,451.54 C577.23,449.64 578.97,447.83 579.97,447.51 C580.98,447.19 582.08,445.83 582.41,444.48 C582.75,443.14 584.42,441.02 586.11,439.77 C587.81,438.52 590.06,435.81 591.12,433.75 C592.18,431.69 593.47,430.00 594.00,430.00 C595.16,430.00 608.14,416.91 611.85,412.00 C614.91,407.96 623.59,399.49 631.34,393.00 C634.30,390.52 637.43,387.34 638.31,385.93 C640.21,382.85 646.19,377.01 659.00,365.73 C669.33,356.62 671.46,352.70 666.60,351.77 C663.60,351.20 654.49,354.23 651.00,356.97 C646.63,360.40 632.15,369.00 630.74,369.00 C629.99,369.00 628.52,369.63 627.46,370.41 C624.87,372.30 622.85,371.10 618.83,365.26 C617.05,362.66 614.67,359.50 613.54,358.22 C612.42,356.94 609.92,353.02 608.00,349.51 C602.72,339.89 597.00,330.70 595.15,328.87 C592.24,326.00 590.14,323.18 588.41,319.80 C587.48,317.98 585.49,314.70 583.99,312.50 C582.49,310.30 579.09,305.12 576.45,301.00 C573.80,296.88 570.03,291.62 568.07,289.32 C562.84,283.18 560.00,279.30 560.00,278.29 C560.00,276.85 550.05,261.86 546.36,257.75 C544.51,255.68 543.00,253.35 543.00,252.57 C543.00,251.79 541.99,250.32 540.75,249.32 C539.51,248.32 536.92,244.42 535.00,240.65 C533.08,236.88 529.67,231.71 527.42,229.15 C525.18,226.59 521.81,221.89 519.92,218.71 C514.48,209.51 509.80,209.92 503.49,220.14 C501.34,223.64 498.04,228.03 496.16,229.91 C494.28,231.79 491.86,235.16 490.77,237.41 C486.73,245.79 480.52,255.04 476.97,258.00 C476.64,258.27 475.05,260.53 473.43,263.02 C469.12,269.65 468.22,271.13 466.08,275.07 C465.02,277.03 463.43,279.23 462.56,279.95 C461.69,280.67 460.11,283.21 459.06,285.60 C456.98,290.31 456.07,291.58 451.42,296.35 C449.73,298.08 446.40,302.65 444.03,306.50 C441.66,310.35 438.88,314.62 437.85,316.00 C436.82,317.38 434.88,320.87 433.54,323.76 C432.20,326.66 430.46,329.27 429.67,329.57 C428.89,329.87 426.40,332.91 424.13,336.31 C421.87,339.71 419.41,343.40 418.66,344.50 C417.90,345.60 414.28,351.82 410.61,358.33 C406.94,364.84 402.26,371.94 400.22,374.11 C396.64,377.91 394.14,382.05 385.92,397.72 C383.83,401.69 381.20,405.94 380.07,407.16 C378.93,408.38 378.00,409.90 378.00,410.55 C378.00,411.20 375.83,415.05 373.18,419.11 C370.53,423.18 367.78,427.96 367.06,429.75 C366.34,431.54 365.39,433.00 364.95,433.00 C364.50,433.00 362.29,436.71 360.04,441.25 C357.78,445.79 354.15,451.98 351.96,455.00 C349.78,458.02 347.47,461.62 346.85,463.00 C346.22,464.38 343.97,469.17 341.85,473.65 C339.73,478.14 338.00,482.13 338.00,482.52 C338.00,482.91 336.49,485.32 334.63,487.87 C332.78,490.41 330.69,494.30 329.99,496.50 C329.28,498.70 327.42,502.79 325.85,505.58 C324.28,508.38 323.00,511.35 323.00,512.20 C323.00,513.04 321.42,516.81 319.50,520.57 C317.58,524.33 316.00,527.82 316.00,528.33 C316.00,528.83 314.46,532.68 312.57,536.87 C310.68,541.07 308.25,547.88 307.16,552.00 C306.08,556.12 303.98,562.65 302.51,566.50 C298.40,577.20 295.72,597.64 296.41,612.94 C297.18,629.91 298.69,641.01 301.51,650.50 C302.82,654.90 304.43,660.96 305.10,663.98 C306.40,669.90 308.32,674.50 311.79,680.00 C313.00,681.92 313.99,684.40 314.00,685.51 C314.00,689.77 327.01,711.63 334.69,720.29 C337.72,723.71 340.80,727.89 341.54,729.58 C342.28,731.27 343.59,733.24 344.44,733.95 C345.30,734.66 346.00,735.82 346.00,736.51 C346.00,737.84 356.51,749.00 357.77,749.00 C358.17,749.00 361.88,752.27 366.00,756.26 C373.19,763.22 382.26,769.95 387.18,771.96 C389.87,773.07 393.56,772.48 396.71,770.43 Z" fill="rgb(254,254,254)"/>
</g>
</svg>